HIERARCHY
ROOT hip
{
	OFFSET 0.000000 0.000000 0.000000
	CHANNELS 6 Xposition Yposition Zposition Xrotation Zrotation Yrotation 
	JOINT abdomen
	{
		OFFSET 0.000000 3.422050 0.000000
		CHANNELS 3 Xrotation Zrotation Yrotation 
		JOINT chest
		{
			OFFSET 0.000000 8.486693 -0.684411
			CHANNELS 3 Xrotation Zrotation Yrotation 
			JOINT neck
			{
				OFFSET 0.000000 10.266162 -0.273764
				CHANNELS 3 Xrotation Zrotation Yrotation 
				JOINT head
				{
					OFFSET 0.000000 3.148285 0.000000
					CHANNELS 3 Xrotation Zrotation Yrotation 
					End Site
					{
						OFFSET 0.000000 3.148289 0.000000
					}
				}
			}
			JOINT lCollar
			{
				OFFSET 3.422053 6.707223 -0.821293
				CHANNELS 3 Yrotation Zrotation Xrotation 
				JOINT lShldr
				{
					OFFSET 3.285171 0.000000 0.000000
					CHANNELS 3 Zrotation Yrotation Xrotation 
					JOINT lForeArm
					{
						OFFSET 10.129278 0.000000 0.000000
						CHANNELS 3 Yrotation Zrotation Xrotation 
						JOINT lHand
						{
							OFFSET 8.486692 0.000000 0.000000
							CHANNELS 3 Zrotation Yrotation Xrotation 
							End Site
							{
								OFFSET 4.106464 0.000000 0.000000
							}
						}
					}
				}
			}
			JOINT rCollar
			{
				OFFSET -3.558935 6.707223 -0.821293
				CHANNELS 3 Yrotation Zrotation Xrotation 
				JOINT rShldr
				{
					OFFSET -3.148289 0.000000 0.000000
					CHANNELS 3 Zrotation Yrotation Xrotation 
					JOINT rForeArm
					{
						OFFSET -10.266159 0.000000 0.000000
						CHANNELS 3 Yrotation Zrotation Xrotation 
						JOINT rHand
						{
							OFFSET -8.349810 0.000000 0.000000
							CHANNELS 3 Zrotation Yrotation Xrotation 
							End Site
							{
								OFFSET -4.106464 0.000000 0.000000
							}
						}
					}
				}
			}
		}
	}
	JOINT lThigh
	{
		OFFSET 5.338403 -1.642589 1.368821
		CHANNELS 3 Xrotation Zrotation Yrotation 
		JOINT lShin
		{
			OFFSET -2.053232 -20.121670 0.000000
			CHANNELS 3 Xrotation Zrotation Yrotation 
			JOINT lFoot
			{
				OFFSET 0.000000 -19.300380 -1.231939
				CHANNELS 3 Xrotation Yrotation Zrotation 
				End Site
				{
					OFFSET 0.000000 -2.463878 4.653993
				}
			}
		}
	}
	JOINT rThigh
	{
		OFFSET -5.338403 -1.642589 1.368821
		CHANNELS 3 Xrotation Zrotation Yrotation 
		JOINT rShin
		{
			OFFSET 2.053232 -20.121670 0.000000
			CHANNELS 3 Xrotation Zrotation Yrotation 
			JOINT rFoot
			{
				OFFSET 0.000000 -19.300380 -1.231939
				CHANNELS 3 Xrotation Yrotation Zrotation 
				End Site
				{
					OFFSET 0.000000 -2.463878 4.653993
				}
			}
		}
	}
}
MOTION
Frames: 8
Frame Time: 0.033325
0.000000 43.528500 0.000000 0.000000 0.000000 0.000000 0.000000 0.000000 0.000000 0.000000 0.000000 0.000000 0.000000 0.000000 0.000000 0.000000 0.000000 0.000000 0.000000 0.000000 0.000000 0.000000 0.000000 0.000000 0.000000 0.000000 0.000000 0.000000 0.000000 0.000000 0.000000 0.000000 0.000000 0.000000 0.000000 0.000000 0.000000 0.000000 0.000000 0.000000 0.000000 0.000000 0.000000 0.000000 0.000000 0.000000 0.000000 0.000000 0.000000 0.000000 0.000000 0.000000 0.000000 0.000000 0.000000 0.000000 0.000000 0.000000 0.000000 0.000000 
-2.442041 41.543022 -30.094450 0.000000 0.000000 -52.000675 -0.508780 -0.072085 -0.088856 -0.886181 7.008682 0.147194 1.000900 -0.738885 0.708754 0.000000 0.000000 0.736149 2.656597 -32.373039 -0.075595 -30.468092 5.454495 -6.540493 -8.002649 0.000000 0.000000 -7.000325 0.000000 0.000000 -2.660529 32.369411 -0.074534 30.464754 -5.458072 -6.541265 7.999141 0.000000 0.000000 6.997566 -0.002036 -9.001469 -3.971783 9.965787 -0.109344 15.080383 -0.384235 -0.281923 -9.385550 38.016300 -9.221917 -6.853506 -13.541910 -12.414302 8.796601 2.201647 -0.007793 -8.040932 -4.563798 -7.899571 
-2.442041 41.543022 -30.094450 0.000000 0.000000 -52.000675 -0.493739 -0.087925 0.065273 -1.114194 7.009193 -0.017627 2.063908 -1.360020 1.514518 0.000000 0.000000 1.471483 2.687444 -32.231495 -0.065218 -30.419529 5.461684 -6.540245 -7.993470 -0.455644 -0.000767 -7.000265 0.000044 -0.000003 -1.717474 32.589493 -0.587714 30.511368 -5.158220 -6.556031 8.864564 0.199132 -0.080847 6.353531 -0.321596 -9.149025 -3.971782 9.965787 -0.109344 15.080383 -0.384235 -0.281923 -9.385550 38.016296 -9.221917 -6.647471 -13.462246 -12.445107 8.607713 2.258256 -0.018427 -8.040931 -4.563798 -7.899571 
-2.442041 41.543022 -30.094450 0.000000 0.000000 -52.000675 -0.478741 -0.103806 0.219401 -1.342269 7.009051 -0.182495 3.121266 -1.997683 2.311014 0.000000 0.000000 2.207303 2.718217 -32.089931 -0.054947 -30.370966 5.468873 -6.539992 -7.984294 -0.911404 -0.001462 -7.000206 0.000089 -0.000005 -0.769030 32.802582 -1.106814 30.557871 -4.858322 -6.570547 9.731121 0.397211 -0.164778 5.708928 -0.643474 -9.293283 -3.971783 9.965787 -0.109344 15.080383 -0.384235 -0.281923 -9.385550 38.016300 -9.221917 -6.441511 -13.382460 -12.475616 8.418774 2.314839 -0.029249 -8.040932 -4.563798 -7.899571 
-2.442041 41.543022 -30.094450 0.000000 0.000000 -52.000675 -0.463785 -0.119727 0.373530 -1.570402 7.008259 -0.347403 4.172620 -2.651442 3.097816 0.000000 0.000000 2.943549 2.748914 -31.948347 -0.044779 -30.322399 5.476061 -6.539733 -7.975120 -1.367265 -0.002084 -7.000147 0.000133 -0.000008 0.184620 33.008541 -1.631663 30.604282 -4.558383 -6.584813 10.598738 0.594166 -0.251773 5.063779 -0.967614 -9.434210 -3.971783 9.965787 -0.109344 15.080383 -0.384235 -0.281923 -9.385550 38.016300 -9.221917 -6.235628 -13.302551 -12.505823 8.229791 2.371394 -0.040261 -8.040932 -4.563798 -7.899571 
-2.442041 41.543022 -30.094450 0.000000 0.000000 -52.000675 -0.448871 -0.135689 0.527658 -1.798589 7.006812 -0.512348 5.217643 -3.320839 3.874518 0.000000 0.000000 3.680161 2.779538 -31.806744 -0.034716 -30.273838 5.483250 -6.539467 -7.965950 -1.823213 -0.002633 -7.000087 0.000177 -0.000011 1.143285 33.207230 -2.162078 30.650608 -4.258407 -6.598831 11.467319 0.789923 -0.341810 4.418098 -1.293957 -9.571755 -3.971783 9.965787 -0.109344 15.080383 -0.384235 -0.281923 -9.385552 38.016304 -9.221918 -6.029820 -13.222528 -12.535732 8.040764 2.427920 -0.051461 -8.040932 -4.563798 -7.899571 
-2.442041 41.543022 -30.094450 0.000000 0.000000 -52.000675 -0.434000 -0.151691 0.681785 -2.026825 7.004714 -0.677325 6.256030 -4.005396 4.640738 0.000000 0.000000 4.417078 2.810089 -31.665127 -0.024756 -30.225271 5.490437 -6.539196 -7.956778 -2.279233 -0.003110 -7.000028 0.000222 -0.000014 2.106761 33.398556 -2.697871 30.696848 -3.958399 -6.612602 12.336787 0.984411 -0.434868 3.771902 -1.622444 -9.705881 -3.971783 9.965787 -0.109344 15.080385 -0.384235 -0.281923 -9.385550 38.016300 -9.221917 -5.824089 -13.142384 -12.565336 7.851691 2.484416 -0.062850 -8.040933 -4.563798 -7.899572 
-2.442041 41.543022 -30.094450 0.000000 0.000000 -52.000675 -0.419172 -0.167734 0.835910 -2.255105 7.001963 -0.842329 7.287494 -4.704607 5.396113 0.000000 0.000000 5.154238 2.840567 -31.523495 -0.014899 -30.176699 5.497624 -6.538918 -7.947606 -2.735312 -0.003513 -6.999969 0.000266 -0.000016 3.074837 33.582378 -3.238837 30.743000 -3.658362 -6.626127 13.207047 1.177558 -0.530920 3.125206 -1.953013 -9.836544 -3.971783 9.965787 -0.109344 15.080383 -0.384235 -0.281923 -9.385549 38.016296 -9.221916 -5.618436 -13.062125 -12.594643 7.662575 2.540882 -0.074427 -8.040932 -4.563797 -7.899571 
